<svg xmlns="http://www.w3.org/2000/svg" style="display: none;"><symbol id="cpu" viewBox="0 0 512 512"><title>cpu</title><g> <g> <path d="M210.932,261.84c-3.715,0-6.775,1.003-6.993,4.11c-0.328,4.21-1.202,10.725-11.145,10.725 c-7.54,0-11.692-3.708-11.692-11.527v-27.966c-0.001-7.818,4.151-11.527,11.472-11.527c10.38,0,11.145,6.816,11.364,9.923 c0.109,3.007,3.06,4.11,7.103,4.11c4.807,0,7.102-1.203,7.102-6.415c0-11.627-10.817-19.045-26.005-19.045 c-13.768,0-25.241,6.215-25.241,22.954v27.966c0,16.74,11.364,22.954,25.131,22.954c15.298,0,26.115-7.718,26.115-19.847 C218.143,263.143,215.849,261.84,210.932,261.84z"/> </g> </g><g> <g> <path d="M255.073,214.228H233.11c-3.278,0-5.354,1.904-5.354,4.01v65.154c0,2.706,3.497,4.11,7.102,4.11 c3.496,0,7.102-1.404,7.102-4.11v-23.255h12.238c14.424,0,25.678-6.315,25.678-22.754v-0.602 C279.876,220.342,268.949,214.228,255.073,214.228z M265.671,238.386c0,7.819-4.371,11.528-11.473,11.528H241.96v-24.259h12.238 c7.103,0,11.473,3.709,11.473,11.528V238.386z"/> </g> </g><g> <g> <path d="M333.633,214.228c-3.606,0-7.102,1.203-7.102,4.01v46.911c0,7.819-4.48,11.527-12.019,11.527 c-7.54,0-12.02-3.708-12.02-11.527v-46.911c0-2.807-3.606-4.01-7.102-4.01c-3.606,0-7.103,1.203-7.103,4.01v46.911 c0,16.74,11.473,22.954,26.224,22.954c14.642,0,26.224-6.215,26.224-22.954v-46.911 C340.735,215.431,337.129,214.228,333.633,214.228z"/> </g> </g><g> <g> <circle cx="67" cy="63.63" r="8.05"/> </g> </g><g> <g> <circle cx="101.24" cy="63.63" r="8.05"/> </g> </g><g> <g> <circle cx="135.49" cy="63.63" r="8.05"/> </g> </g><g> <g> <circle cx="169.73" cy="63.63" r="8.05"/> </g> </g><g> <g> <circle cx="203.97" cy="63.63" r="8.05"/> </g> </g><g> <g> <circle cx="238.21" cy="63.63" r="8.05"/> </g> </g><g> <g> <circle cx="272.45" cy="63.63" r="8.05"/> </g> </g><g> <g> <circle cx="306.69" cy="63.63" r="8.05"/> </g> </g><g> <g> <circle cx="340.94" cy="63.63" r="8.05"/> </g> </g><g> <g> <circle cx="375.18" cy="63.63" r="8.05"/> </g> </g><g> <g> <circle cx="409.42" cy="63.63" r="8.05"/> </g> </g><g> <g> <circle cx="443.66" cy="63.63" r="8.05"/> </g> </g><g> <g> <circle cx="67" cy="98.31" r="8.05"/> </g> </g><g> <g> <circle cx="101.24" cy="98.31" r="8.05"/> </g> </g><g> <g> <circle cx="135.49" cy="98.31" r="8.05"/> </g> </g><g> <g> <circle cx="169.73" cy="98.31" r="8.05"/> </g> </g><g> <g> <circle cx="203.97" cy="98.31" r="8.05"/> </g> </g><g> <g> <circle cx="238.21" cy="98.31" r="8.05"/> </g> </g><g> <g> <circle cx="272.45" cy="98.31" r="8.05"/> </g> </g><g> <g> <circle cx="306.69" cy="98.31" r="8.05"/> </g> </g><g> <g> <circle cx="340.94" cy="98.31" r="8.05"/> </g> </g><g> <g> <circle cx="375.18" cy="98.31" r="8.05"/> </g> </g><g> <g> <circle cx="409.42" cy="98.31" r="8.05"/> </g> </g><g> <g> <circle cx="443.66" cy="98.31" r="8.05"/> </g> </g><g> <g> <circle cx="67" cy="133.3" r="8.05"/> </g> </g><g> <g> <circle cx="101.24" cy="133.3" r="8.05"/> </g> </g><g> <g> <circle cx="409.42" cy="133.3" r="8.05"/> </g> </g><g> <g> <circle cx="443.66" cy="133.3" r="8.05"/> </g> </g><g> <g> <circle cx="67" cy="167.98" r="8.05"/> </g> </g><g> <g> <circle cx="101.24" cy="167.98" r="8.05"/> </g> </g><g> <g> <circle cx="409.42" cy="167.98" r="8.05"/> </g> </g><g> <g> <circle cx="443.66" cy="167.98" r="8.05"/> </g> </g><g> <g> <circle cx="67" cy="202.97" r="8.05"/> </g> </g><g> <g> <circle cx="101.24" cy="202.97" r="8.05"/> </g> </g><g> <g> <circle cx="409.42" cy="202.97" r="8.05"/> </g> </g><g> <g> <circle cx="443.66" cy="202.97" r="8.05"/> </g> </g><g> <g> <circle cx="67" cy="237.65" r="8.05"/> </g> </g><g> <g> <circle cx="101.24" cy="237.65" r="8.05"/> </g> </g><g> <g> <circle cx="409.42" cy="237.65" r="8.05"/> </g> </g><g> <g> <circle cx="443.66" cy="237.65" r="8.05"/> </g> </g><g> <g> <circle cx="67" cy="272.64" r="8.05"/> </g> </g><g> <g> <circle cx="101.24" cy="272.64" r="8.05"/> </g> </g><g> <g> <circle cx="409.42" cy="272.64" r="8.05"/> </g> </g><g> <g> <circle cx="443.66" cy="272.64" r="8.05"/> </g> </g><g> <g> <circle cx="67" cy="307.32" r="8.05"/> </g> </g><g> <g> <circle cx="101.24" cy="307.32" r="8.05"/> </g> </g><g> <g> <circle cx="409.42" cy="307.32" r="8.05"/> </g> </g><g> <g> <circle cx="443.66" cy="307.32" r="8.05"/> </g> </g><g> <g> <circle cx="67" cy="342.31" r="8.05"/> </g> </g><g> <g> <circle cx="101.24" cy="342.31" r="8.05"/> </g> </g><g> <g> <circle cx="409.42" cy="342.31" r="8.05"/> </g> </g><g> <g> <circle cx="443.66" cy="342.31" r="8.05"/> </g> </g><g> <g> <circle cx="67" cy="376.98" r="8.05"/> </g> </g><g> <g> <circle cx="101.24" cy="376.98" r="8.05"/> </g> </g><g> <g> <circle cx="409.42" cy="376.98" r="8.05"/> </g> </g><g> <g> <circle cx="443.66" cy="376.98" r="8.05"/> </g> </g><g> <g> <circle cx="67" cy="411.98" r="8.05"/> </g> </g><g> <g> <circle cx="101.24" cy="411.98" r="8.05"/> </g> </g><g> <g> <circle cx="135.49" cy="411.98" r="8.05"/> </g> </g><g> <g> <circle cx="169.73" cy="411.98" r="8.05"/> </g> </g><g> <g> <circle cx="203.97" cy="411.98" r="8.05"/> </g> </g><g> <g> <circle cx="238.21" cy="411.98" r="8.05"/> </g> </g><g> <g> <circle cx="272.45" cy="411.98" r="8.05"/> </g> </g><g> <g> <circle cx="306.69" cy="411.98" r="8.05"/> </g> </g><g> <g> <circle cx="340.94" cy="411.98" r="8.05"/> </g> </g><g> <g> <circle cx="375.18" cy="411.98" r="8.05"/> </g> </g><g> <g> <circle cx="409.42" cy="411.98" r="8.05"/> </g> </g><g> <g> <circle cx="443.66" cy="411.98" r="8.05"/> </g> </g><g> <g> <circle cx="67" cy="446.65" r="8.05"/> </g> </g><g> <g> <circle cx="101.24" cy="446.65" r="8.05"/> </g> </g><g> <g> <circle cx="135.49" cy="446.65" r="8.05"/> </g> </g><g> <g> <circle cx="169.73" cy="446.65" r="8.05"/> </g> </g><g> <g> <circle cx="203.97" cy="446.65" r="8.05"/> </g> </g><g> <g> <circle cx="238.21" cy="446.65" r="8.05"/> </g> </g><g> <g> <circle cx="272.45" cy="446.65" r="8.05"/> </g> </g><g> <g> <circle cx="306.69" cy="446.65" r="8.05"/> </g> </g><g> <g> <circle cx="340.94" cy="446.65" r="8.05"/> </g> </g><g> <g> <circle cx="375.18" cy="446.65" r="8.05"/> </g> </g><g> <g> <circle cx="409.42" cy="446.65" r="8.05"/> </g> </g><g> <g> <circle cx="443.66" cy="446.65" r="8.05"/> </g> </g><g> <g> <path d="M372.397,122.206H139.604c-9.593,0-17.397,7.804-17.397,17.397V236c0,4.142,3.358,7.5,7.5,7.5c4.142,0,7.5-3.358,7.5-7.5 v-96.397c0-1.322,1.076-2.397,2.397-2.397h232.793c1.322,0,2.397,1.075,2.397,2.397V236c0,4.142,3.358,7.5,7.5,7.5 c4.142,0,7.5-3.358,7.5-7.5v-96.397C389.794,130.01,381.99,122.206,372.397,122.206z"/> </g> </g><g> <g> <path d="M382.294,268.5c-4.142,0-7.5,3.358-7.5,7.5v45.787c0,1.809-0.737,3.577-2.021,4.85l-46.582,46.178 c-1.287,1.276-2.995,1.979-4.808,1.979h-181.78c-1.322,0-2.397-1.075-2.397-2.397V276c0-4.142-3.358-7.5-7.5-7.5 c-4.142,0-7.5,3.358-7.5,7.5v96.397c0,9.593,7.805,17.397,17.397,17.397h181.78c5.795,0,11.253-2.247,15.368-6.327l46.582-46.178 c4.106-4.07,6.461-9.721,6.461-15.502V276C389.794,271.858,386.437,268.5,382.294,268.5z"/> </g> </g><g> <g> <path d="M504.5,146.815c4.142,0,7.5-3.358,7.5-7.5c0-4.142-3.358-7.5-7.5-7.5h-21.579V88.473H504.5c4.142,0,7.5-3.358,7.5-7.5 c0-4.142-3.358-7.5-7.5-7.5h-21.579V58.72c0-16.344-13.297-29.641-29.641-29.641h-14.753V7.5c0-4.142-3.358-7.5-7.5-7.5 c-4.142,0-7.5,3.358-7.5,7.5v21.579h-43.342V7.5c0-4.142-3.358-7.5-7.5-7.5c-4.142,0-7.5,3.358-7.5,7.5v21.579h-43.343V7.5 c0-4.142-3.358-7.5-7.5-7.5c-4.142,0-7.5,3.358-7.5,7.5v21.579H263.5V7.5c0-4.142-3.358-7.5-7.5-7.5c-4.142,0-7.5,3.358-7.5,7.5 v21.579h-43.342V7.5c0-4.142-3.358-7.5-7.5-7.5c-4.142,0-7.5,3.358-7.5,7.5v21.579h-43.343V7.5c0-4.142-3.358-7.5-7.5-7.5 c-4.142,0-7.5,3.358-7.5,7.5v21.579H88.473V7.5c0-4.142-3.358-7.5-7.5-7.5c-4.142,0-7.5,3.358-7.5,7.5v21.579H58.72 c-16.344,0-29.641,13.297-29.641,29.641v14.753H7.5c-4.142,0-7.5,3.358-7.5,7.5c0,4.142,3.358,7.5,7.5,7.5h21.579v43.342H7.5 c-4.142,0-7.5,3.358-7.5,7.5c0,4.142,3.358,7.5,7.5,7.5h21.579v43.343H7.5c-4.142,0-7.5,3.358-7.5,7.5c0,4.142,3.358,7.5,7.5,7.5 h21.579V248.5H7.5c-4.142,0-7.5,3.358-7.5,7.5c0,4.142,3.358,7.5,7.5,7.5h21.579v43.342H7.5c-4.142,0-7.5,3.358-7.5,7.5 c0,4.142,3.358,7.5,7.5,7.5h21.579v43.343H7.5c-4.142,0-7.5,3.358-7.5,7.5c0,4.142,3.358,7.5,7.5,7.5h21.579v43.342H7.5 c-4.142,0-7.5,3.358-7.5,7.5c0,4.142,3.358,7.5,7.5,7.5h21.579v14.753c0,16.344,13.297,29.641,29.641,29.641h14.753V504.5 c0,4.142,3.358,7.5,7.5,7.5c4.142,0,7.5-3.358,7.5-7.5v-21.579h43.342V504.5c0,4.142,3.358,7.5,7.5,7.5c4.142,0,7.5-3.358,7.5-7.5 v-21.579h43.343V504.5c0,4.142,3.358,7.5,7.5,7.5c4.142,0,7.5-3.358,7.5-7.5v-21.579H248.5V504.5c0,4.142,3.358,7.5,7.5,7.5 c4.142,0,7.5-3.358,7.5-7.5v-21.579h43.342V504.5c0,4.142,3.358,7.5,7.5,7.5c4.142,0,7.5-3.358,7.5-7.5v-21.579h43.343V504.5 c0,4.142,3.358,7.5,7.5,7.5c4.142,0,7.5-3.358,7.5-7.5v-21.579h43.342V504.5c0,4.142,3.358,7.5,7.5,7.5c4.142,0,7.5-3.358,7.5-7.5 v-21.579h14.753c16.344,0,29.641-13.297,29.641-29.641v-14.753H504.5c4.142,0,7.5-3.358,7.5-7.5c0-4.142-3.358-7.5-7.5-7.5 h-21.579v-43.342H504.5c4.142,0,7.5-3.358,7.5-7.5c0-4.142-3.358-7.5-7.5-7.5h-21.579v-43.343H504.5c4.142,0,7.5-3.358,7.5-7.5 c0-4.142-3.358-7.5-7.5-7.5h-21.579V263.5H504.5c4.142,0,7.5-3.358,7.5-7.5c0-4.142-3.358-7.5-7.5-7.5h-21.579v-43.342H504.5 c4.142,0,7.5-3.358,7.5-7.5c0-4.142-3.358-7.5-7.5-7.5h-21.579v-43.343H504.5z M467.921,80.963c0,0.003,0,0.006,0,0.01 c0,0.004,0,0.006,0,0.01v58.323c0,0.003,0,0.006,0,0.01c0,0.004,0,0.006,0,0.01v58.323c0,0.003,0,0.006,0,0.01 c0,0.004,0,0.006,0,0.01v58.323c0,0.003,0,0.006,0,0.01c0,0.004,0,0.006,0,0.01v58.323c0,0.003,0,0.006,0,0.01 c0,0.004,0,0.006,0,0.01v58.323c0,0.003,0,0.006,0,0.01c0,0.004,0,0.006,0,0.01v58.323c0,0.003,0,0.006,0,0.01 c0,0.004,0,0.006,0,0.01v22.243c0,8.073-6.568,14.641-14.641,14.641H58.72c-8.073,0-14.641-6.568-14.641-14.641V58.72 c0-8.073,6.568-14.641,14.641-14.641h394.56c8.073,0,14.641,6.568,14.641,14.641V80.963z"/> </g> </g></symbol><symbol id="gpu" viewBox="0 0 64 64"><title>gpu</title><path d="m7.467 11.733h-6.4c-.589 0-1.067-.478-1.067-1.066 0-.589.478-1.067 1.067-1.067h6.4c.589 0 1.067.478 1.067 1.067-.001.588-.479 1.066-1.067 1.066z"/><path d="m7.467 37.333c-.589 0-1.067-.478-1.067-1.067v-25.6c0-.588.478-1.066 1.067-1.066s1.067.478 1.067 1.067v25.6c-.001.588-.479 1.066-1.067 1.066z"/><path d="m7.467 27.733h-4.267c-.589 0-1.067-.478-1.067-1.067v-6.4c0-.589.478-1.067 1.067-1.067h4.267c.589 0 1.067.478 1.067 1.067v6.4c-.001.589-.479 1.067-1.067 1.067zm-3.2-2.133h2.133v-4.267h-2.133z"/><path d="m7.467 40.533h-4.267c-.589 0-1.067-.478-1.067-1.067v-4.266c0-.589.478-1.067 1.067-1.067h4.267c.589 0 1.067.478 1.067 1.067v4.267c-.001.588-.479 1.066-1.067 1.066zm-3.2-2.133h2.133v-2.133h-2.133z"/><path d="m19.2 54.4c-.589 0-1.067-.478-1.067-1.067v-3.2c0-.589.478-1.067 1.067-1.067s1.067.478 1.067 1.067v3.2c0 .589-.478 1.067-1.067 1.067z"/><path d="m23.467 54.4h-8.533c-.589 0-1.067-.478-1.067-1.067v-7.467c0-.589.478-1.067 1.067-1.067h8.533c.589 0 1.067.478 1.067 1.067v7.467c-.001.589-.479 1.067-1.067 1.067zm-7.467-2.133h6.4v-5.333h-6.4z"/><path d="m7.467 17.067h-4.267c-.589 0-1.067-.478-1.067-1.067s.478-1.067 1.067-1.067h4.267c.589 0 1.067.478 1.067 1.067s-.479 1.067-1.067 1.067z"/><path d="m7.467 32h-4.267c-.589 0-1.067-.478-1.067-1.067s.478-1.067 1.067-1.067h4.267c.589 0 1.067.478 1.067 1.067-.001.589-.479 1.067-1.067 1.067z"/><path d="m58.666 46.933h-46.933c-2.941 0-5.333-2.393-5.333-5.333v-25.6c0-.589.478-1.067 1.067-1.067h51.199c2.942 0 5.334 2.393 5.334 5.333v21.334c0 2.941-2.393 5.333-5.334 5.333zm-50.133-29.866v24.533c0 1.764 1.436 3.2 3.2 3.2h46.932c1.765 0 3.201-1.436 3.201-3.2v-21.333c0-1.764-1.436-3.2-3.201-3.2z"/><path d="m48 42.667c-6.469 0-11.733-5.264-11.733-11.733s5.264-11.734 11.733-11.734 11.733 5.264 11.733 11.733-5.264 11.734-11.733 11.734zm0-21.334c-5.294 0-9.6 4.307-9.6 9.6s4.306 9.6 9.6 9.6 9.6-4.307 9.6-9.6-4.306-9.6-9.6-9.6z"/><path d="m48 35.2c-2.353 0-4.267-1.914-4.267-4.267s1.914-4.267 4.267-4.267 4.267 1.914 4.267 4.267-1.914 4.267-4.267 4.267zm0-6.4c-1.177 0-2.133.957-2.133 2.133 0 1.177.957 2.133 2.133 2.133s2.133-.957 2.133-2.133-.956-2.133-2.133-2.133z"/><path d="m48 28.8c-.589 0-1.067-.478-1.067-1.067 0-2.298-2.932-4.267-5.333-4.267-.589 0-1.067-.478-1.067-1.067s.478-1.067 1.067-1.067c3.453 0 7.467 2.796 7.467 6.4 0 .59-.478 1.068-1.067 1.068z"/><path d="m54.4 40.533c-3.453 0-7.467-2.796-7.467-6.4 0-.589.478-1.067 1.067-1.067s1.067.478 1.067 1.067c0 2.298 2.932 4.267 5.333 4.267.589 0 1.067.478 1.067 1.067 0 .588-.478 1.066-1.067 1.066z"/><path d="m39.467 38.4c-.589 0-1.067-.478-1.067-1.067 0-3.453 2.796-7.467 6.4-7.467.589 0 1.067.478 1.067 1.067s-.478 1.067-1.067 1.067c-2.298 0-4.267 2.933-4.267 5.333 0 .589-.478 1.067-1.066 1.067z"/><path d="m51.2 32c-.589 0-1.067-.478-1.067-1.067s.478-1.067 1.067-1.067c2.298 0 4.267-2.933 4.267-5.333 0-.589.478-1.067 1.067-1.067s1.067.478 1.067 1.067c-.001 3.453-2.797 7.467-6.401 7.467z"/><path d="m37.441 30.492c-.273 0-.546-.105-.754-.313-.417-.416-.417-1.091 0-1.508 1.187-1.187 2.972-2.027 4.774-2.245 2.035-.251 3.823.282 5.031 1.491.416.417.416 1.092 0 1.508-.417.417-1.092.417-1.508 0-.724-.724-1.913-1.045-3.265-.882-1.345.163-2.661.775-3.522 1.636-.21.208-.484.313-.756.313z"/><path d="m53.579 35.501c-1.634 0-3.056-.535-4.07-1.551-.416-.417-.416-1.092 0-1.508.417-.417 1.092-.417 1.508 0 .724.724 1.914 1.047 3.265.882 1.345-.163 2.661-.775 3.522-1.636.417-.417 1.092-.417 1.508 0 .417.416.417 1.091 0 1.508-1.187 1.187-2.972 2.027-4.774 2.245-.326.041-.647.06-.959.06z"/><path d="m46.492 42.559c-.273 0-.546-.105-.754-.313-2.442-2.442-3.302-7.257-.754-9.805.417-.417 1.092-.417 1.508 0 .417.416.417 1.091 0 1.508-1.625 1.625-.944 5.091.754 6.788.417.417.417 1.091 0 1.508-.208.21-.481.314-.754.314z"/><path d="m50.262 29.738c-.273 0-.546-.105-.754-.313-.417-.416-.417-1.091 0-1.508 1.625-1.625.944-5.091-.754-6.788-.417-.417-.417-1.091 0-1.508.416-.417 1.092-.417 1.508 0 2.442 2.442 3.302 7.257.754 9.805-.207.207-.481.312-.754.312z"/><path d="m53.333 54.4h-23.466c-.589 0-1.067-.478-1.067-1.067v-7.467c0-.589.478-1.067 1.067-1.067h23.467c.589 0 1.067.478 1.067 1.067v7.467c-.001.589-.479 1.067-1.068 1.067zm-22.4-2.133h21.333v-5.333h-21.333z"/><path d="m35.2 54.4c-.589 0-1.067-.478-1.067-1.067v-3.2c0-.589.478-1.067 1.067-1.067s1.067.478 1.067 1.067v3.2c0 .589-.478 1.067-1.067 1.067z"/><path d="m48 54.4c-.589 0-1.067-.478-1.067-1.067v-3.2c0-.589.478-1.067 1.067-1.067s1.067.478 1.067 1.067v3.2c0 .589-.478 1.067-1.067 1.067z"/><path d="m43.733 54.4c-.589 0-1.067-.478-1.067-1.067v-3.2c0-.589.478-1.067 1.067-1.067s1.067.478 1.067 1.067v3.2c0 .589-.478 1.067-1.067 1.067z"/><path d="m39.467 54.4c-.589 0-1.067-.478-1.067-1.067v-3.2c0-.589.478-1.067 1.067-1.067s1.067.478 1.067 1.067v3.2c-.001.589-.479 1.067-1.067 1.067z"/><path d="m37.333 46.933c-.273 0-.546-.105-.754-.313l-8.221-8.22h-20.891c-.589 0-1.067-.478-1.067-1.067v-12.8c0-.589.478-1.067 1.067-1.067h20.892l8.221-8.221c.416-.417 1.092-.417 1.508 0 .417.417.417 1.091 0 1.508l-8.533 8.533c-.2.202-.472.314-.755.314h-20.267v10.667h20.267c.283 0 .555.112.754.313l8.533 8.533c.417.417.417 1.091 0 1.508-.208.208-.481.312-.754.312z"/><path d="m28.8 32h-4.267c-.589 0-1.067-.478-1.067-1.067s.478-1.067 1.067-1.067h4.267c.589 0 1.067.478 1.067 1.067s-.478 1.067-1.067 1.067z"/><path d="m19.2 32h-11.733c-.589 0-1.067-.478-1.067-1.067s.478-1.067 1.067-1.067h11.733c.589 0 1.067.478 1.067 1.067s-.478 1.067-1.067 1.067z"/></symbol></svg>